<?xml version="1.0" standalone="no"?>
<!DOCTYPE svg PUBLIC "-//W3C//DTD SVG 20010904//EN"
 "http://www.w3.org/TR/2001/REC-SVG-20010904/DTD/svg10.dtd">
<svg version="1.0" xmlns="http://www.w3.org/2000/svg"
 width="512.000000pt" height="512.000000pt" viewBox="0 0 512.000000 512.000000"
 preserveAspectRatio="xMidYMid meet">
<defs>
  <linearGradient id="grad1" x1="-1600" y1="2112" x2="2112" y2="-1600" gradientUnits="userSpaceOnUse">
    <stop offset="0%" style="stop-color:rgba(255,255,255,1); stop-opacity:1" />
    <stop offset="20%" style="stop-color:rgba(249,205,213,1); stop-opacity:1" />
    <stop offset="52%" style="stop-color:rgba(245,171,185,1); stop-opacity:1" />
    <stop offset="95%" style="stop-color:rgba(0,212,255,1); stop-opacity:1" />
    <stop offset="100%" style="stop-color:rgba(0,212,255,1); stop-opacity:1" />
  </linearGradient>
</defs>
<g transform="translate(0.000000,512.000000) scale(0.100000,-0.100000)"
fill="url(#grad1)" stroke="none">
<path d="M2088 4941 c-20 -4 -44 -13 -52 -20 -11 -9 -30 -11 -60 -7 -27 4 -47
3 -51 -4 -3 -5 -21 -10 -38 -10 -45 0 -97 -16 -121 -38 -12 -11 -34 -24 -50
-29 -20 -6 -32 -18 -37 -36 -7 -26 -6 -27 32 -27 37 0 39 -2 39 -30 0 -23 -5
-30 -19 -30 -14 0 -18 -5 -14 -19 3 -10 0 -22 -6 -25 -18 -11 -13 -26 9 -26
16 0 20 -7 20 -30 0 -23 -4 -30 -20 -30 -17 0 -19 -4 -14 -27 4 -16 13 -33 20
-39 8 -6 14 -19 14 -28 0 -9 5 -22 10 -29 6 -7 20 -25 31 -40 14 -19 28 -27
40 -24 12 3 26 -6 43 -28 22 -29 24 -36 13 -64 -10 -26 -9 -37 7 -66 21 -38
20 -38 147 -39 37 0 73 5 80 11 8 6 55 14 104 17 76 6 100 4 154 -14 55 -19
65 -19 80 -7 21 19 151 3 151 -19 0 -8 -11 -14 -27 -15 -21 -1 -23 -2 -8 -6
11 -3 25 -9 31 -14 7 -6 16 -4 24 6 14 17 59 13 120 -9 185 -70 271 -108 290
-131 11 -13 10 -19 -5 -35 -10 -11 -25 -20 -33 -20 -9 0 -6 -7 11 -20 14 -11
31 -18 39 -15 15 6 63 -13 114 -46 l31 -19 -8 47 c-5 26 -14 52 -19 57 -6 6
-10 14 -10 18 0 10 33 10 46 0 5 -4 26 -14 48 -21 52 -18 108 -57 124 -86 7
-14 21 -29 31 -34 25 -14 33 -61 15 -83 -11 -12 -12 -18 -4 -23 7 -4 16 -2 20
4 5 8 19 10 44 6 46 -9 181 -140 191 -186 4 -16 19 -38 35 -49 21 -15 34 -40
54 -104 14 -46 26 -92 26 -102 0 -11 7 -28 15 -38 8 -11 15 -30 15 -42 0 -13
8 -25 19 -29 22 -7 81 -155 89 -222 4 -37 8 -43 28 -43 17 0 24 -6 24 -20 0
-13 -7 -20 -20 -20 -26 0 -25 -14 2 -32 27 -18 36 -108 18 -185 -11 -43 -11
-62 -2 -86 10 -26 9 -34 -5 -50 -10 -10 -25 -16 -36 -13 -17 4 -18 3 -3 -13 9
-10 16 -22 16 -28 0 -6 6 -16 14 -22 16 -13 20 -137 6 -156 -19 -26 -30 -78
-19 -91 9 -11 5 -22 -15 -48 -14 -19 -26 -42 -26 -50 0 -9 -17 -48 -37 -86
-41 -76 -66 -88 -89 -42 -10 20 -12 21 -18 7 -3 -9 -6 -23 -6 -31 0 -8 -11
-37 -25 -66 -14 -28 -25 -55 -25 -60 0 -12 58 -10 65 2 3 5 13 10 21 10 22 0
17 -59 -10 -106 -13 -23 -26 -57 -30 -76 -4 -20 -19 -46 -36 -62 -17 -14 -30
-32 -30 -39 0 -6 -17 -30 -38 -53 -20 -23 -54 -62 -75 -88 -21 -25 -50 -49
-65 -53 -14 -3 -55 -35 -90 -69 -60 -59 -189 -141 -252 -159 -14 -4 -33 -17
-42 -28 -15 -19 -21 -20 -55 -11 -41 11 -108 -5 -84 -20 18 -11 13 -38 -6 -34
-10 2 -17 11 -17 21 1 12 -6 17 -25 17 -33 0 -51 -17 -51 -48 0 -23 -3 -24
-36 -19 -30 5 -37 3 -41 -12 -4 -16 -15 -19 -69 -20 -68 -1 -70 0 -54 30 13
23 -2 26 -20 4 -7 -8 -23 -15 -37 -15 -20 0 -23 -4 -18 -20 5 -17 -1 -24 -40
-41 -39 -17 -51 -19 -75 -9 -15 6 -30 20 -33 31 -4 16 -14 19 -57 19 -54 0
-60 -13 -14 -30 38 -15 28 -27 -26 -34 -64 -8 -120 2 -127 23 -15 42 -33 50
-97 44 -54 -5 -63 -3 -80 16 -12 13 -31 21 -51 21 -18 0 -38 7 -45 15 -7 8
-18 15 -24 15 -7 0 -44 16 -83 35 -39 19 -76 35 -82 35 -6 0 -34 16 -61 35
-34 24 -61 35 -85 35 -30 0 -35 3 -35 24 0 14 4 27 9 30 5 3 11 21 13 40 l4
33 -33 -18 c-19 -11 -40 -19 -47 -19 -18 0 -136 125 -136 144 0 9 -4 16 -9 16
-5 0 -11 9 -14 20 -3 11 -12 20 -21 20 -9 0 -17 8 -18 18 0 9 -2 28 -3 42 -2
14 -6 39 -10 56 -4 19 -3 34 4 38 11 7 -20 91 -44 115 -12 12 -13 11 -8 -8 3
-12 1 -32 -5 -44 -6 -12 -12 -31 -14 -42 -4 -23 -38 -34 -38 -12 0 8 -9 22
-19 31 -11 10 -25 32 -32 49 -7 18 -23 45 -36 60 -25 31 -30 63 -12 69 8 3 5
25 -11 73 -13 39 -24 97 -25 130 -1 35 -9 73 -18 90 -21 38 -23 134 -2 161 8
10 15 31 15 47 0 27 3 29 55 31 28 2 33 36 6 36 -18 0 -21 6 -21 38 0 49 21
114 43 136 9 10 17 32 17 50 0 19 6 39 14 45 8 6 23 33 34 59 11 26 41 69 66
97 25 27 46 55 46 61 0 6 26 33 58 60 31 27 76 67 100 90 24 23 55 45 69 49
14 3 51 22 81 42 45 28 59 33 74 24 20 -12 48 -3 88 29 35 28 315 75 357 59
10 -4 23 -2 30 3 12 10 153 -5 213 -22 19 -5 49 -10 67 -10 36 0 122 -37 140
-60 7 -9 24 -14 47 -12 41 4 57 -17 35 -45 -8 -9 -13 -25 -11 -35 2 -11 -4
-28 -14 -39 -19 -22 -20 -21 21 -35 16 -5 39 -24 50 -41 11 -18 28 -32 38 -33
9 0 17 -4 17 -8 0 -5 8 -17 18 -28 10 -11 31 -41 46 -67 31 -53 41 -60 25 -20
-7 20 -7 40 2 73 7 25 14 47 15 49 7 9 87 -78 105 -113 21 -43 14 -62 -24 -68
-30 -4 -28 -32 3 -36 13 -2 30 -11 37 -20 22 -30 36 -124 38 -247 2 -99 -1
-128 -17 -165 -11 -25 -26 -66 -34 -91 -8 -26 -21 -52 -29 -59 -8 -7 -15 -21
-15 -31 0 -21 -35 -43 -56 -35 -8 3 -14 12 -14 21 0 27 -19 16 -37 -22 -20
-43 -65 -93 -85 -94 -7 0 -3 -4 10 -10 23 -9 23 -9 -17 -56 -39 -47 -69 -64
-166 -92 -40 -13 -238 -9 -281 4 -12 4 -32 2 -44 -5 -18 -10 -26 -8 -53 13
-48 35 -58 40 -55 26 2 -7 -5 -15 -14 -17 -21 -4 -25 23 -5 31 6 3 -1 6 -18 6
-16 1 -37 5 -45 11 -9 5 -19 5 -27 -2 -21 -17 -43 -1 -43 31 0 21 -6 30 -22
35 -26 6 -91 65 -125 111 -17 23 -22 26 -23 12 0 -10 12 -29 27 -43 15 -14 23
-28 18 -32 -6 -4 -15 -22 -22 -39 -9 -27 -9 -33 2 -33 18 0 55 -74 55 -110 0
-25 -4 -30 -25 -30 -19 0 -26 7 -31 28 -10 46 -14 53 -23 48 -12 -8 -34 21
-26 34 3 6 11 8 16 5 5 -4 9 -3 9 2 -1 11 -26 43 -34 43 -16 0 -127 124 -143
158 l-16 37 -7 -30 c-4 -16 -8 -42 -9 -57 -1 -25 1 -26 33 -21 27 4 35 2 40
-13 3 -11 18 -32 33 -48 16 -16 35 -41 43 -56 35 -61 56 -94 78 -120 12 -15
22 -35 22 -44 0 -19 -33 -38 -54 -30 -33 13 -120 102 -148 152 -17 28 -34 52
-39 52 -18 0 -8 -37 16 -60 14 -13 25 -29 25 -36 0 -7 14 -26 31 -43 36 -36
35 -65 -2 -69 -34 -4 -59 21 -59 59 0 23 -5 30 -27 35 -16 4 -39 14 -52 23
-23 15 -24 15 -12 -8 16 -30 7 -51 -21 -50 -26 0 -98 80 -98 108 0 10 -6 23
-12 28 -16 12 -60 24 -56 15 19 -38 46 -73 61 -78 9 -3 22 -15 28 -27 7 -12
18 -26 25 -30 8 -4 14 -14 14 -22 0 -7 8 -16 18 -19 10 -4 45 -36 78 -73 32
-36 69 -76 81 -88 12 -12 27 -35 33 -51 10 -26 13 -27 21 -11 14 24 31 21 63
-12 26 -27 28 -34 21 -79 -6 -48 6 -80 19 -47 3 9 19 15 41 15 32 0 36 -3 33
-22 -2 -14 -12 -24 -28 -28 l-25 -6 25 -9 c14 -4 35 -18 47 -31 12 -13 30 -24
39 -24 13 0 10 5 -10 21 -14 11 -26 30 -26 41 0 19 4 20 42 14 65 -11 96 -71
41 -78 -25 -3 -23 -5 17 -17 25 -7 61 -19 80 -26 136 -48 155 -51 197 -33 15
7 57 13 93 15 104 4 174 9 190 16 19 7 71 17 130 24 25 3 49 9 54 14 6 5 23 9
39 9 17 0 46 14 74 35 35 27 49 32 63 25 28 -15 35 -12 47 20 10 28 15 30 60
30 37 0 51 4 61 20 7 11 18 20 26 20 12 0 46 32 153 142 17 18 43 41 56 50 14
10 39 46 56 80 28 59 81 128 98 128 5 0 21 22 36 50 22 39 26 54 17 69 -11 21
-5 46 16 71 6 8 17 35 24 60 6 25 13 52 16 61 3 11 -3 18 -16 22 -24 6 -26 40
-5 77 20 35 19 49 -5 43 -12 -3 -22 1 -26 11 -6 15 22 111 38 130 4 6 8 18 8
28 0 22 31 88 42 88 4 0 8 5 8 10 0 6 -7 10 -15 10 -8 0 -15 -5 -15 -12 0 -17
-40 -97 -52 -104 -22 -14 -28 14 -14 66 8 30 16 71 18 90 3 36 33 55 48 30 4
-7 13 -9 19 -6 16 10 13 36 -5 43 -8 3 -13 12 -10 20 3 8 2 23 -4 32 -5 10
-11 56 -13 102 -2 63 -9 95 -26 127 -20 40 -21 45 -7 61 24 27 20 35 -29 59
-44 21 -45 22 -45 72 0 36 -4 52 -15 56 -8 4 -15 11 -15 18 0 6 -15 27 -34 47
-18 20 -36 44 -39 53 -3 8 -19 18 -34 22 -26 6 -123 97 -123 115 0 5 -7 9 -15
9 -8 0 -35 14 -60 32 -53 38 -59 73 -13 73 37 1 44 11 13 19 -14 4 -25 10 -25
15 0 5 -14 13 -32 16 -17 4 -45 16 -62 26 -35 21 -56 25 -38 7 7 -7 12 -20 12
-30 0 -23 -52 -25 -74 -3 -8 8 -30 18 -48 22 -18 3 -37 9 -43 13 -5 4 -24 11
-41 14 -18 4 -40 16 -50 27 -9 10 -25 19 -35 19 -33 0 -49 12 -49 36 0 26 7
28 62 15 29 -7 35 -6 31 5 -3 8 -17 17 -32 20 -14 4 -31 13 -38 22 -10 12 -15
13 -27 3 -12 -10 -23 -10 -49 -2 -19 7 -41 9 -49 6 -9 -4 -33 1 -54 10 -47 20
-104 26 -121 13 -13 -10 -115 -12 -168 -2 -16 3 -64 9 -105 14 -41 6 -85 15
-97 21 -17 9 -36 9 -79 0 -32 -6 -83 -11 -115 -11 -45 0 -66 -5 -95 -25 -20
-14 -42 -25 -49 -25 -7 0 -18 -6 -24 -14 -10 -12 -50 -22 -116 -28 -11 -1 -26
-10 -33 -20 -7 -10 -22 -18 -32 -18 -11 0 -36 -11 -56 -25 -20 -14 -45 -25
-54 -25 -10 0 -23 -7 -30 -15 -7 -8 -22 -15 -34 -15 -12 0 -39 -17 -60 -39
-33 -33 -44 -39 -67 -34 -25 5 -29 2 -29 -16 0 -11 -10 -27 -22 -35 -25 -16
-103 -23 -130 -11 -20 8 -38 -21 -38 -64 0 -22 -7 -35 -27 -48 -30 -20 -79
-72 -104 -112 -9 -14 -55 -66 -103 -116 -47 -49 -86 -93 -86 -97 0 -4 -14 -14
-30 -23 -31 -16 -70 -82 -94 -161 -12 -39 -12 -41 5 -37 12 4 21 -1 25 -13 3
-11 10 -28 16 -38 8 -16 6 -23 -11 -37 -11 -10 -20 -26 -19 -36 3 -22 -17 -95
-37 -141 -9 -18 -13 -38 -9 -43 3 -5 -4 -24 -15 -43 -11 -18 -19 -35 -16 -37
2 -3 7 -20 10 -38 5 -28 1 -39 -21 -62 -26 -27 -26 -30 -11 -47 22 -24 21 -38
-3 -72 -17 -24 -19 -38 -14 -121 3 -52 12 -103 19 -114 7 -12 10 -35 7 -55 -5
-33 -4 -34 13 -20 19 16 62 15 83 -3 7 -5 12 -22 10 -36 -4 -33 -50 -41 -79
-15 -15 14 -22 15 -32 5 -9 -10 -8 -14 6 -22 11 -7 17 -22 17 -47 0 -21 5 -43
11 -49 6 -6 13 -30 15 -54 2 -24 8 -47 14 -53 5 -5 10 -21 10 -33 0 -28 22
-74 44 -92 14 -11 14 -17 1 -47 -13 -32 -13 -34 5 -34 27 0 50 -37 43 -70 -4
-22 -1 -28 16 -33 11 -3 25 -16 30 -30 5 -14 24 -41 42 -61 25 -29 30 -42 26
-66 -13 -64 33 -120 99 -120 14 0 43 -14 64 -30 21 -17 45 -30 54 -30 9 0 16
-7 16 -15 0 -9 7 -18 15 -21 8 -4 15 -12 15 -19 0 -7 26 -31 58 -52 42 -29 58
-47 60 -66 3 -24 0 -27 -30 -27 l-33 0 30 -25 c17 -13 45 -29 62 -34 18 -5 45
-19 59 -30 32 -25 41 -22 22 8 -10 16 -10 23 -1 32 10 10 24 6 64 -14 28 -15
60 -27 71 -27 25 0 60 -19 76 -41 7 -10 25 -19 40 -21 35 -4 46 -48 13 -48
-12 0 -30 5 -41 12 -28 18 -39 -1 -11 -21 12 -9 42 -33 66 -54 23 -20 47 -37
53 -37 5 0 37 -14 71 -30 64 -32 191 -75 253 -85 23 -3 38 -12 40 -22 3 -15
16 -17 99 -14 66 2 118 -3 165 -15 37 -9 84 -16 103 -15 90 4 111 3 188 -12
58 -11 92 -13 115 -6 18 5 47 9 64 9 17 0 37 7 44 15 15 18 49 19 101 3 40
-12 65 -4 39 12 -8 6 -25 10 -38 10 -27 0 -41 28 -21 41 8 5 35 7 60 3 29 -3
49 -1 54 5 3 6 1 11 -4 11 -6 0 -11 8 -11 19 0 25 39 32 153 27 77 -3 91 -7
104 -26 13 -18 21 -20 57 -15 22 4 51 13 63 21 12 8 38 14 56 14 35 0 67 24
67 51 1 8 31 29 68 47 37 18 94 47 128 65 33 17 91 42 129 55 38 13 77 30 87
39 13 11 21 13 31 5 9 -8 31 7 90 63 77 74 91 95 61 95 -11 0 -14 5 -10 16 3
9 6 26 6 39 0 15 7 25 21 28 11 3 23 15 26 26 3 12 11 21 19 21 7 0 18 9 24
20 6 12 22 25 36 30 17 7 24 17 24 36 0 16 10 34 25 46 14 11 25 26 25 34 0 8
4 14 9 14 5 0 17 23 26 50 9 28 25 55 35 60 12 6 21 26 26 56 7 50 25 74 55
74 20 0 26 15 9 25 -22 14 -10 54 25 82 20 16 35 37 35 49 0 11 3 24 7 28 4 4
8 17 8 29 0 16 7 23 28 25 15 2 27 9 27 16 0 20 37 49 54 43 11 -5 16 6 21 48
4 30 4 70 1 88 -5 25 -2 38 9 47 8 7 15 23 15 37 0 13 7 26 15 29 10 4 13 14
9 31 -4 13 -1 35 6 48 10 19 10 27 1 39 -10 12 -10 23 0 53 7 21 19 43 27 50
8 6 11 16 8 22 -4 6 -2 37 3 68 14 76 14 105 0 183 -11 65 -12 83 -5 215 4 97
4 95 26 95 24 0 24 -2 1 51 -11 24 -31 96 -46 159 -14 63 -30 133 -36 155 -5
22 -14 58 -20 80 -12 46 -35 75 -59 75 -21 0 -30 19 -30 61 0 16 -3 29 -8 29
-8 0 -25 38 -37 80 -4 14 -17 41 -29 60 -27 45 -56 136 -56 178 0 32 -54 142
-70 142 -5 0 -19 18 -31 40 -23 41 -40 50 -19 10 16 -30 2 -42 -39 -34 -24 5
-43 20 -69 55 -20 27 -42 49 -49 49 -7 0 -19 15 -27 34 -8 18 -19 37 -25 40
-6 4 -11 16 -11 27 0 13 -7 19 -22 19 -23 0 -108 79 -108 99 0 5 -8 12 -18 16
-11 3 -24 17 -31 31 -6 15 -30 33 -56 45 -45 20 -48 23 -47 69 1 16 -1 19 -4
8 -6 -20 -19 -23 -29 -8 -3 5 -11 7 -18 4 -8 -3 -23 15 -38 45 -14 31 -31 50
-41 51 -9 0 -21 7 -26 16 -8 14 -22 16 -78 12 -63 -4 -70 -2 -92 21 -13 14
-33 46 -44 70 -11 25 -31 54 -45 64 -17 14 -23 27 -21 42 4 21 1 23 -49 24
-30 0 -63 6 -74 11 -10 6 -19 8 -19 4 0 -3 -6 -2 -12 3 -7 6 -26 10 -43 10
-45 0 -109 34 -113 60 -5 32 -26 45 -82 48 -36 2 -50 -1 -50 -11 0 -26 -22
-26 -49 0 -25 24 -34 26 -117 26 -78 0 -93 3 -109 20 -10 11 -14 20 -9 20 5 0
2 5 -6 10 -21 13 -95 12 -142 -2 -32 -9 -41 -9 -48 1 -4 8 -32 15 -61 18 -134
10 -176 11 -211 4z m76 -31 c18 -7 26 -17 26 -34 0 -35 -33 -51 -70 -36 -39
16 -46 41 -20 62 26 21 30 21 64 8z m320 -90 c31 -12 33 -32 5 -71 -23 -33
-44 -36 -73 -11 -19 15 -19 15 -7 0 25 -33 -9 -51 -45 -23 -18 14 -17 16 34
65 30 27 55 50 57 50 2 0 15 -4 29 -10z m-286 -133 c3 -21 -1 -27 -15 -27 -32
0 -45 21 -26 42 22 24 37 18 41 -15z m-353 -38 c0 -7 -8 -15 -17 -17 -18 -3
-25 18 -11 32 10 10 28 1 28 -15z m459 -20 c20 -9 29 -9 40 1 13 10 25 7 68
-14 28 -14 57 -26 63 -26 14 0 46 -34 44 -46 -1 -5 0 -11 1 -14 9 -19 5 -71
-5 -80 -9 -8 -22 1 -49 34 -33 41 -39 44 -70 39 -29 -5 -39 -1 -61 23 -15 16
-25 24 -23 19 5 -15 -12 -16 -55 -4 -21 5 -40 16 -43 23 -3 8 -15 11 -30 8
-14 -2 -24 0 -24 7 0 6 15 11 34 11 21 0 36 6 40 15 6 18 36 19 70 4z m850
-264 c21 -16 14 -35 -13 -35 -26 0 -44 23 -29 38 15 15 19 15 42 -3z m390 -19
c30 -25 31 -51 1 -62 -22 -9 -65 34 -65 63 0 30 26 30 64 -1z m190 -112 c9 -3
16 -17 16 -30 0 -31 -44 -44 -68 -21 -14 15 -14 18 3 37 20 22 25 23 49 14z
m-224 -63 c0 -11 -5 -23 -11 -27 -14 -8 -29 14 -22 33 8 20 33 16 33 -6z m308
-34 c2 -19 11 -31 29 -38 32 -12 24 -34 -13 -34 -23 0 -30 5 -32 24 -2 13 -12
26 -23 28 -22 6 -25 23 -7 41 20 20 43 9 46 -21z m170 -69 c20 -20 13 -42 -18
-60 -29 -17 -31 -16 -50 4 -26 28 -25 42 3 56 30 14 51 14 65 0z m92 -120 c11
-12 20 -30 20 -39 0 -10 12 -24 27 -31 17 -9 40 -41 69 -98 24 -47 50 -90 59
-96 8 -6 15 -18 15 -27 0 -27 -27 -26 -58 2 -16 16 -37 31 -46 34 -9 4 -16 13
-16 22 0 9 -16 29 -35 46 -27 24 -35 39 -35 65 0 31 -2 33 -27 28 -24 -4 -31
0 -45 26 -10 18 -18 39 -18 49 0 43 56 55 90 19z m-1865 -112 c53 -23 43 -57
-20 -70 -23 -4 -37 0 -59 18 -31 25 -28 42 8 56 29 12 32 12 71 -4z m-358 -12
c2 -6 -8 -23 -22 -38 -14 -15 -23 -31 -20 -35 6 -11 -25 -37 -52 -44 -26 -6
-73 26 -73 50 0 30 31 53 70 53 22 0 43 7 50 15 14 17 41 17 47 -1z m492 -8
c9 -11 6 -18 -15 -35 -32 -25 -38 -26 -53 -7 -9 11 -10 20 -1 35 12 24 52 28
69 7z m-244 -40 c0 -20 -89 -81 -104 -71 -5 2 -25 -5 -47 -15 -51 -27 -80 -25
-100 5 -32 49 -19 59 98 75 58 8 110 19 114 23 14 14 39 2 39 -17z m-477 -18
c7 -7 12 -25 12 -40 0 -38 -42 -60 -67 -35 -16 15 -16 19 0 52 17 36 34 44 55
23z m522 -33 c0 -8 -7 -15 -15 -15 -8 0 -15 7 -15 15 0 8 7 15 15 15 8 0 15
-7 15 -15z m-14 -76 c11 -18 -13 -34 -31 -19 -8 7 -15 16 -15 21 0 13 38 11
46 -2z m-608 -26 c-2 -23 -8 -28 -30 -28 -15 -1 -36 -9 -46 -18 -18 -16 -20
-16 -32 -1 -19 22 0 49 33 49 14 0 32 6 38 13 23 22 41 14 37 -15z m2807 -7
c21 -31 16 -90 -6 -94 -27 -5 -60 50 -53 87 8 38 37 42 59 7z m-185 -31 c0 -8
-7 -15 -15 -15 -8 0 -15 7 -15 15 0 8 7 15 15 15 8 0 15 -7 15 -15z m-2772 -7
c16 -16 15 -53 -2 -67 -17 -14 -68 -11 -73 4 -5 15 35 75 50 75 7 0 18 -5 25
-12z m-147 -160 c10 -18 8 -24 -11 -40 -49 -39 -92 -7 -50 38 29 30 46 31 61
2z m116 -84 c8 -21 -13 -42 -28 -27 -13 13 -5 43 11 43 6 0 13 -7 17 -16z
m1895 -9 c8 -19 8 -28 -2 -40 -17 -21 -31 -19 -59 10 -19 21 -21 28 -11 40 20
24 59 19 72 -10z m-2361 -79 c22 -48 -36 -93 -60 -47 -8 14 -6 25 10 45 25 32
36 33 50 2z m-62 -80 c27 -32 -43 -108 -83 -93 -25 10 -19 46 13 78 33 32 52
36 70 15z m2576 -41 c27 -37 27 -61 0 -71 -24 -10 -55 25 -55 61 0 56 17 59
55 10z m-607 -67 c30 -30 0 -78 -37 -59 -17 9 -18 15 -8 41 12 32 26 37 45 18z
m-2025 -73 c-1 -35 -8 -64 -16 -70 -7 -5 -11 -18 -9 -28 5 -27 -17 -75 -46
-97 -19 -15 -22 -23 -14 -33 9 -10 7 -19 -4 -35 -20 -29 -38 -28 -63 4 -26 33
-26 44 -3 51 14 3 17 12 14 32 -2 17 2 32 12 40 9 8 16 20 16 28 0 8 14 35 30
60 17 24 30 57 30 72 0 34 8 43 35 39 18 -3 20 -9 18 -63z m3791 29 c11 -28 7
-35 -16 -32 -30 4 -39 48 -10 48 11 0 23 -7 26 -16z m-3664 -38 c0 -22 -29
-41 -42 -28 -9 9 -7 17 7 32 18 20 35 18 35 -4z m2406 3 c10 -17 -13 -36 -27
-22 -12 12 -4 33 11 33 5 0 12 -5 16 -11z m233 -53 c18 -32 8 -56 -22 -56 -31
0 -60 31 -51 56 18 50 47 50 73 0z m21 -101 c10 -13 10 -19 -4 -34 -14 -15
-15 -24 -7 -40 17 -30 13 -41 -14 -41 -31 0 -46 26 -32 57 7 16 7 26 -1 36 -9
10 -8 17 0 25 17 17 43 15 58 -3z m954 -27 c5 -9 7 -20 3 -25 -11 -10 -41 11
-45 31 -5 23 26 18 42 -6z m64 -70 c30 -30 -1 -74 -33 -48 -18 15 -20 46 -2
53 19 8 22 8 35 -5z m-968 -23 c0 -8 -7 -15 -15 -15 -8 0 -15 7 -15 15 0 8 7
15 15 15 8 0 15 -7 15 -15z m-2985 -34 c3 -5 1 -13 -5 -16 -15 -9 -43 3 -35
15 8 13 32 13 40 1z m50 -41 c18 -20 18 -21 -3 -43 -14 -14 -19 -30 -16 -44 9
-33 -15 -38 -43 -10 l-25 25 25 17 c15 10 24 22 20 31 -6 17 3 44 15 44 5 0
17 -9 27 -20z m2853 -156 c4 -25 -22 -49 -43 -40 -31 12 -9 70 25 64 8 -2 16
-13 18 -24z m-2896 -1 c23 -21 23 -45 -2 -68 -15 -14 -23 -15 -34 -6 -20 17
-29 60 -15 77 15 18 28 18 51 -3z m128 -97 c-13 -13 -35 7 -25 24 5 8 11 8 21
-1 10 -8 12 -15 4 -23z m3327 18 c8 -20 -13 -64 -31 -64 -16 0 -26 21 -26 56
0 19 5 24 25 24 14 0 28 -7 32 -16z m-3310 -100 c9 -23 -13 -40 -32 -24 -12
10 -13 16 -4 26 15 18 28 18 36 -2z m-136 -38 c10 -20 8 -30 -11 -56 -12 -17
-27 -29 -34 -27 -15 5 -24 67 -14 90 13 25 47 21 59 -7z m2944 -16 c8 -13 -13
-40 -31 -40 -14 0 -19 31 -7 43 10 10 31 8 38 -3z m963 -83 c2 -12 -3 -17 -17
-17 -12 0 -21 6 -21 13 0 31 32 34 38 4z m-3980 -39 c27 -27 1 -108 -34 -108
-47 0 -74 92 -31 110 31 12 51 12 65 -2z m2827 2 c10 -16 -16 -43 -28 -31 -11
11 -2 41 12 41 5 0 13 -5 16 -10z m-76 -54 c10 -12 9 -20 -4 -40 -19 -29 -37
-33 -54 -12 -18 22 6 61 40 65 4 1 12 -5 18 -13z m1226 -11 c0 -15 -8 -21 -29
-23 -33 -4 -51 10 -42 33 9 25 71 16 71 -10z m-1598 -21 c3 -9 -7 -28 -28 -50
-34 -35 -45 -39 -67 -25 -22 13 33 91 65 91 13 0 26 -7 30 -16z m-957 -164 c0
-5 14 -25 30 -44 31 -35 74 -150 66 -173 -14 -36 -76 13 -99 77 -8 25 -19 69
-22 98 -6 44 -4 52 9 52 9 0 16 -4 16 -10z m-1426 -29 c7 -10 -22 -37 -30 -28
-9 8 3 37 15 37 5 0 12 -4 15 -9z m76 -16 c7 -8 10 -25 7 -37 -4 -13 0 -29 9
-39 13 -14 13 -18 0 -28 -8 -7 -25 -11 -38 -9 -20 3 -23 8 -21 42 2 22 -2 45
-8 52 -6 7 -8 18 -4 24 9 15 41 12 55 -5z m1496 -2 c3 -10 12 -32 21 -49 18
-38 14 -68 -10 -72 -10 -2 -20 5 -26 20 -5 13 -16 30 -25 37 -16 13 -22 62 -9
74 13 13 44 7 49 -10z m104 -48 c0 -16 -35 -21 -44 -6 -8 12 4 21 26 21 10 0
18 -7 18 -15z m67 -33 c16 -10 53 -99 53 -128 0 -20 -5 -24 -30 -24 -25 0 -32
6 -44 35 -16 37 -30 45 -40 20 -8 -21 -29 -19 -50 4 -27 30 -17 56 22 55 28
-2 32 1 32 22 0 18 5 24 23 24 12 0 27 -4 34 -8z m-499 -14 c15 -15 16 -58 1
-58 -22 0 -49 21 -49 39 0 31 25 42 48 19z m701 -16 c16 -15 31 -37 35 -49 11
-33 -19 -36 -51 -4 -15 15 -36 30 -45 34 -10 3 -18 16 -18 27 0 30 45 26 79
-8z m-616 -26 c21 -16 22 -52 1 -60 -24 -9 -54 12 -54 38 0 38 20 46 53 22z
m520 0 c21 -16 23 -46 3 -46 -15 0 -46 26 -46 39 0 22 19 25 43 7z m-1719 -25
c21 -23 18 -60 -7 -75 -15 -9 -23 -5 -48 22 -29 32 -30 35 -13 53 22 24 46 24
68 0z m136 6 c0 -8 -3 -17 -7 -20 -9 -9 -34 13 -27 24 8 14 34 11 34 -4z
m3464 4 c9 -13 -19 -84 -36 -95 -20 -12 -48 8 -48 34 0 40 67 88 84 61z
m-1377 -37 c9 -23 -13 -40 -32 -24 -8 7 -15 19 -15 26 0 19 39 18 47 -2z
m-454 -13 c42 -16 43 -42 3 -74 l-36 -29 29 -24 c17 -14 42 -24 60 -24 21 0
31 -5 31 -15 0 -23 -101 -48 -181 -43 -81 4 -113 28 -122 92 -6 37 -5 38 20
33 16 -3 32 1 41 10 11 11 27 13 54 9 37 -6 37 -6 27 18 -22 49 12 70 74 47z
m1645 -8 c-2 -10 -12 -18 -23 -18 -11 0 -21 8 -23 18 -3 13 3 17 23 17 20 0
26 -4 23 -17z m-1888 -18 c15 -18 10 -45 -13 -59 -22 -14 -37 5 -37 47 0 30
28 38 50 12z m-1320 -19 c0 -8 -5 -18 -10 -21 -17 -11 -40 3 -34 20 8 19 44
20 44 1z m1930 -10 c0 -8 -5 -18 -11 -22 -14 -8 -33 11 -25 25 10 16 36 13 36
-3z m248 2 c19 -19 15 -26 -28 -54 -33 -22 -43 -24 -55 -14 -30 25 -14 62 30
73 34 8 41 7 53 -5z m-533 -43 c0 -23 -5 -31 -22 -33 -17 -3 -24 3 -29 22 -8
32 3 48 29 44 17 -2 22 -10 22 -33z m1535 -20 c0 -8 -7 -15 -15 -15 -8 0 -15
7 -15 15 0 8 7 15 15 15 8 0 15 -7 15 -15z m-3295 -34 c0 -22 -32 -38 -46 -24
-9 9 -9 16 1 28 15 19 45 16 45 -4z m1365 -6 c9 -11 10 -19 3 -26 -13 -13 -53
9 -53 28 0 18 35 16 50 -2z m2054 -1 c20 -8 21 -63 2 -90 -18 -24 -46 -10 -60
29 -8 21 -6 31 9 47 20 22 25 23 49 14z m-1310 -27 c9 -15 5 -23 -22 -48 -32
-29 -35 -30 -53 -13 -24 21 -25 60 -1 73 25 15 63 9 76 -12z m-113 -44 c8 -20
6 -30 -5 -42 -13 -13 -19 -13 -41 -1 -22 12 -27 11 -44 -4 -23 -21 -41 -14
-41 18 0 33 17 44 60 39 22 -3 40 -1 44 6 11 17 15 14 27 -16z m-681 -8 c0 -8
-7 -15 -15 -15 -8 0 -15 7 -15 15 0 8 7 15 15 15 8 0 15 -7 15 -15z m-1292
-38 c2 -11 -3 -17 -17 -17 -23 0 -35 15 -26 31 10 15 39 6 43 -14z m1412 5 c0
-5 24 -7 53 -4 44 3 55 1 71 -17 24 -27 46 -27 46 -1 0 19 4 20 38 14 20 -4
45 -11 55 -16 20 -10 23 -48 5 -66 -15 -15 -80 -16 -95 -1 -8 8 -17 8 -30 0
-14 -7 -36 -6 -79 5 -32 8 -70 18 -84 21 -14 3 -30 10 -36 14 -6 5 -25 6 -43
3 -27 -6 -31 -4 -31 14 0 17 8 22 38 27 20 4 42 8 47 10 20 7 45 5 45 -3z
m1932 -11 c25 -24 18 -48 -17 -61 -14 -5 -25 -15 -25 -23 0 -7 -5 -18 -12 -25
-9 -9 -16 -8 -30 5 -26 23 -22 40 12 58 21 11 30 23 30 40 0 30 14 32 42 6z
m-1552 -25 c0 -13 -8 -34 -18 -46 -16 -20 -21 -21 -41 -10 -17 8 -21 18 -17
33 3 12 6 28 6 35 0 7 14 12 35 12 30 0 35 -3 35 -24z m69 -23 c-15 -18 -34
-1 -25 22 5 14 9 15 21 5 12 -10 13 -16 4 -27z m-1853 -24 c10 -17 -13 -36
-27 -22 -12 12 -4 33 11 33 5 0 12 -5 16 -11z m3257 -103 c11 -8 17 -27 17
-50 0 -31 -3 -36 -22 -36 -13 0 -31 12 -41 25 -17 24 -17 26 0 50 21 28 22 29
46 11z m-2963 -51 c21 -23 22 -27 9 -41 -12 -11 -22 -12 -41 -5 -36 14 -43 29
-22 52 22 24 26 24 54 -6z m2888 -88 c3 -25 1 -28 -17 -22 -16 5 -21 2 -21
-12 0 -21 -44 -65 -109 -108 -24 -16 -48 -40 -54 -52 -11 -25 -45 -31 -53 -9
-6 17 47 105 64 106 7 0 15 8 19 18 13 34 45 72 62 72 10 0 26 9 36 20 28 31
69 23 73 -13z m-308 -97 c0 -12 -28 -25 -36 -17 -9 9 6 27 22 27 8 0 14 -5 14
-10z m-1680 -111 c16 -29 6 -46 -26 -45 -29 1 -41 22 -30 52 8 21 44 17 56 -7z
m1750 -43 c0 -22 -49 -56 -81 -56 -34 0 -39 23 -12 52 20 22 93 26 93 4z
m-160 -80 c0 -8 -5 -18 -11 -22 -14 -8 -33 11 -25 25 10 16 36 13 36 -3z
m-990 -71 c0 -9 -9 -15 -25 -15 -16 0 -25 6 -25 15 0 9 9 15 25 15 16 0 25 -6
25 -15z m450 -20 c0 -8 -9 -15 -20 -15 -11 0 -20 7 -20 15 0 8 9 15 20 15 11
0 20 -7 20 -15z m180 -69 c0 -14 -60 -26 -126 -26 -44 0 -45 20 -1 21 17 1 43
5 57 9 40 13 70 11 70 -4z m-390 -66 c0 -5 -11 -10 -25 -10 -14 0 -25 5 -25
10 0 6 11 10 25 10 14 0 25 -4 25 -10z"/>
<path d="M1735 3920 c-3 -6 5 -10 19 -10 14 0 28 5 31 10 3 6 -5 10 -19 10
-14 0 -28 -4 -31 -10z"/>
<path d="M2865 3732 c9 -8 41 -22 115 -50 8 -3 2 6 -15 20 -27 23 -124 52
-100 30z"/>
<path d="M1570 419 c0 -7 -10 -9 -26 -5 -17 5 -23 3 -19 -4 10 -16 65 -12 65
5 0 8 -4 15 -10 15 -5 0 -10 -5 -10 -11z"/>
<path d="M1635 411 c-3 -5 -1 -12 4 -15 13 -8 42 4 35 15 -7 12 -31 12 -39 0z"/>
<path d="M3270 378 c0 -15 44 -26 58 -16 20 17 14 24 -23 24 -19 0 -35 -4 -35
-8z"/>
<path d="M1626 361 c-3 -4 6 -19 19 -31 19 -18 28 -21 37 -12 9 9 7 16 -7 32
-19 21 -40 26 -49 11z"/>
<path d="M1830 361 c0 -22 20 -51 36 -51 9 0 29 -9 44 -20 31 -22 42 -16 30
16 -5 13 -21 24 -41 28 -18 3 -41 14 -51 23 -12 11 -18 12 -18 4z"/>
<path d="M2937 313 c-16 -15 -5 -23 31 -23 35 1 36 2 18 15 -21 16 -39 19 -49
8z"/>
<path d="M3026 301 c-8 -13 14 -28 56 -35 37 -7 59 7 41 25 -13 13 -90 22 -97
10z"/>
<path d="M2070 293 c-36 -5 -67 -23 -39 -23 7 -1 32 -9 54 -20 22 -11 53 -19
69 -20 16 0 37 -6 45 -14 9 -7 40 -16 68 -19 45 -5 54 -3 63 13 14 27 13 30
-13 30 -12 0 -40 9 -62 20 -22 11 -49 20 -62 20 -12 0 -25 5 -28 10 -6 10 -28
11 -95 3z"/>
<path d="M2604 236 c-12 -32 1 -51 36 -54 35 -2 70 11 58 23 -3 3 -19 7 -34 9
-17 2 -30 10 -32 20 -4 20 -21 21 -28 2z"/>
<path d="M3020 185 c-15 -18 -5 -35 20 -35 20 0 44 32 33 44 -11 11 -40 6 -53
-9z"/>
</g>
</svg>
